<svg width="54" height="55" viewBox="0 0 54 55" fill="none" xmlns="http://www.w3.org/2000/svg">
<g filter="url(#filter0_d_1390_2)">
<path d="M6.02453 32.1645C12.9327 38.7766 13.1984 45.7992 11.8587 49.0837C7.45069 44.0014 5.18181 38.4957 4.59837 36.3781C6.32342 43.217 9.77682 47.7952 11.5703 49.4158C9.19341 48.6163 3.02965 45.2461 1.16274 39.4897C-0.704164 33.7332 1.94062 26.5896 3.49637 23.7373C1.88873 27.0045 4.51196 30.7167 6.02453 32.1645Z" fill="#2CD785"/>
<path d="M3.2677 23.6123C3.33557 23.4881 3.49067 23.4407 3.61633 23.5059C3.74207 23.571 3.79215 23.7255 3.72961 23.8525C2.97178 25.393 3.20291 27.053 3.8302 28.5312C4.45775 30.0101 5.46832 31.2722 6.20422 31.9766C13.1771 38.6506 13.4857 45.7833 12.0997 49.1816C12.0656 49.2653 11.9906 49.326 11.9015 49.3408C11.8723 49.3456 11.8429 49.3428 11.8146 49.3379C11.8363 49.4062 11.8332 49.4814 11.795 49.5469C11.7327 49.6533 11.6043 49.7014 11.4874 49.6621C10.269 49.2523 8.10715 48.195 6.01282 46.5146C3.9181 44.8339 1.8697 42.5132 0.915161 39.5703C-0.0380766 36.6311 0.164758 33.354 0.792114 30.4688C1.41997 27.5814 2.47863 25.059 3.2677 23.6123ZM8.18958 44.5615C9.20059 46.2951 10.2212 47.6297 11.047 48.5244C9.95583 47.1979 9.00577 45.8554 8.18958 44.5615Z" stroke="#242020" stroke-width="0.520613" stroke-linejoin="round"/>
</g>
<g filter="url(#filter1_d_1390_2)">
<circle cx="26.7464" cy="25.5322" r="25.0936" stroke="#242020" stroke-width="0.624736" shape-rendering="crispEdges"/>
</g>
<mask id="mask0_1390_2" style="mask-type:alpha" maskUnits="userSpaceOnUse" x="1" y="0" width="51" height="51">
<path d="M26.7252 50.3198C40.4402 50.3198 51.5585 39.2016 51.5585 25.4866C51.5585 11.7715 40.4402 0.65332 26.7252 0.65332C13.0102 0.65332 1.89197 11.7715 1.89197 25.4866C1.89197 39.2016 13.0102 50.3198 26.7252 50.3198Z" fill="url(#paint0_linear_1390_2)"/>
</mask>
<g mask="url(#mask0_1390_2)">
<g filter="url(#filter2_f_1390_2)">
<g clip-path="url(#clip0_1390_2)">
<path d="M-6.67043 -28.8629C-16.6651 8.79348 -14.775 32.4022 -1.00117 41.9634C19.6601 56.3051 68.7882 62.0416 89.3237 93.1525C109.858 124.263 172.472 100.212 183.18 46.8172C193.889 -6.57803 213.169 -88.8774 111.502 -88.8774C43.7225 -88.8774 4.33265 -68.873 -6.67009 -28.8629H-6.67043Z" fill="#0F1C70"/>
<path d="M-1.71945 -31.0794C-11.1787 4.5597 -9.38983 26.9037 3.6461 35.9527C23.2005 49.5261 69.6968 54.9553 89.1321 84.3996C108.567 113.843 167.826 91.0812 177.961 40.5464C188.096 -9.98834 206.343 -87.8789 110.122 -87.8789C45.9739 -87.8789 8.69419 -68.9461 -1.71913 -31.0794H-1.71945Z" fill="#1F2F98"/>
<path d="M3.23142 -33.2925C-5.69237 0.329269 -4.00479 21.4085 8.29326 29.9453C26.7408 42.7504 70.6052 47.8723 88.9405 75.6499C107.275 103.427 163.18 81.9533 172.741 34.279C182.302 -13.3953 199.517 -86.877 108.742 -86.877C48.2251 -86.877 13.0556 -69.0158 3.23172 -33.2925H3.23142Z" fill="#2B3EBF"/>
<path d="M8.19046 -35.5061C-0.197903 -3.90166 1.38843 15.9128 12.9486 23.9374C30.2893 35.9742 71.5218 40.7888 88.757 66.8997C105.992 93.0101 158.542 72.8249 167.53 28.0111C176.517 -16.8027 192.699 -85.8755 107.371 -85.8755C50.4845 -85.8755 17.4252 -69.0861 8.19074 -35.5061H8.19046Z" fill="#1463BF"/>
<path d="M13.1411 -37.7139C5.28814 -8.12672 6.77322 10.423 17.5955 17.9353C33.8293 29.2038 72.43 33.7111 88.5651 58.1554C104.7 82.5992 153.896 63.7024 162.31 21.749C170.723 -20.2043 185.872 -84.8682 105.991 -84.8682C52.7356 -84.8682 21.7864 -69.1504 13.1413 -37.7139H13.1411Z" fill="#0B65CF"/>
<path d="M18.0946 -39.9309C10.7771 -12.361 12.1609 4.92399 22.2453 11.9241C37.3723 22.4243 73.3411 26.6243 88.376 49.4019C103.41 72.1791 149.252 54.5707 157.093 15.4778C164.933 -23.6152 179.049 -83.8701 104.613 -83.8701C54.9895 -83.8701 26.1505 -69.224 18.0949 -39.9309H18.0946Z" fill="#0F6CDA"/>
<path d="M23.0456 -42.1411C16.2635 -16.5885 17.5461 -0.568275 26.8926 5.91964C40.9127 15.6515 74.2497 19.5442 88.1845 40.6551C102.119 61.7657 144.607 45.4457 151.873 9.21327C159.139 -27.0192 172.223 -82.8652 103.234 -82.8652C57.2408 -82.8652 30.512 -69.2908 23.0458 -42.1411H23.0456Z" fill="#1589DE"/>
<path d="M28.0042 -44.3518C21.7575 -20.8165 22.9388 -6.061 31.5475 -0.0852966C44.4607 8.87827 75.1658 12.4636 88.0005 31.9079C100.835 51.3519 139.968 36.3203 146.661 2.94831C153.354 -30.4237 165.404 -81.8608 101.862 -81.8608C59.4998 -81.8608 34.8811 -69.3581 28.0044 -44.3518H28.0042Z" fill="#4AD9ED"/>
<path d="M32.9554 -46.5653C27.2442 -25.0474 28.3242 -11.5567 36.195 -6.09315C48.0014 2.1021 76.0746 5.38013 87.8092 23.1578C99.5434 40.9351 135.323 27.192 141.442 -3.31957C147.561 -33.8311 158.578 -80.8594 100.482 -80.8594C61.7514 -80.8594 39.2429 -69.4283 32.9556 -46.5653H32.9554Z" fill="#86F0FF"/>
<path d="M37.9089 -48.7819C32.7331 -29.2812 33.7119 -17.0553 40.8448 -12.104C51.5444 -4.67702 76.9857 -1.7063 87.6202 14.4047C98.2543 30.5154 130.679 18.0607 136.225 -9.59041C141.77 -37.2415 151.754 -79.8608 99.1052 -79.8608C64.0053 -79.8608 43.607 -69.5014 37.9091 -48.7819H37.9089Z" fill="#BAF7FF"/>
<path d="M42.8601 -50.9926C38.2197 -33.5092 39.0972 -22.548 45.4922 -18.1089C55.0849 -11.4503 77.8944 -8.78686 87.4288 5.65749C96.9628 20.1015 126.033 8.93526 131.005 -15.8554C135.977 -40.646 144.928 -78.8564 97.7257 -78.8564C66.2568 -78.8564 47.9686 -69.5687 42.8602 -50.9926H42.8601Z" fill="#BAFFDE"/>
<path d="M47.8186 -53.2091C43.7137 -37.743 44.49 -28.0466 50.1471 -24.1197C58.6329 -18.2293 78.8105 -15.8732 87.2448 -3.09556C95.6787 9.68188 121.395 -0.195992 125.793 -22.1262C130.191 -44.0563 138.11 -77.8579 96.3535 -77.8579C68.5157 -77.8579 52.3377 -69.6418 47.8187 -53.2091H47.8186Z" fill="#77FFBE"/>
</g>
</g>
</g>
<g filter="url(#filter3_d_1390_2)">
<path d="M38.9803 8.94971C39.0648 8.89047 39.1763 8.88652 39.2645 8.93994C39.5911 9.13756 40.0636 9.43923 40.453 9.80225C40.8303 10.154 41.1929 10.6212 41.1737 11.1538C41.1709 11.2317 41.1332 11.3048 41.0712 11.3521C41.0092 11.3991 40.9291 11.4159 40.8534 11.3979C40.3572 11.28 39.9095 10.9605 39.5673 10.5688C39.2245 10.1766 38.9702 9.69175 38.8749 9.21338C38.8547 9.11222 38.8959 9.00896 38.9803 8.94971Z" fill="#2CD785" stroke="#242020" stroke-width="0.520613" stroke-linejoin="round"/>
<path d="M41.7886 12.7246C41.8657 12.6677 41.9676 12.6573 42.0542 12.6982C43.2686 13.2754 44.1655 14.3953 44.8208 15.4746L45.0552 15.875C46.1956 17.9002 46.8664 20.236 47.1558 22.5137C47.1652 22.5888 47.142 22.6645 47.0913 22.7207C47.0405 22.777 46.9669 22.8085 46.8911 22.8066C46.2524 22.7911 45.7454 22.4044 45.3647 21.9492C44.9818 21.4913 44.6943 20.9262 44.4946 20.4707C44.3705 20.1876 44.265 19.8871 44.1606 19.6084C44.0543 19.3244 43.9469 19.0554 43.813 18.8096C43.7495 18.693 43.6628 18.5901 43.5542 18.4531C43.4529 18.3253 43.3345 18.1696 43.2603 17.9795C43.1915 17.8036 43.1686 17.6216 43.1489 17.4766C43.1279 17.3214 43.11 17.2016 43.0669 17.0918C43.0073 16.9399 42.9242 16.7955 42.8286 16.6318C42.7364 16.4741 42.6314 16.2966 42.5542 16.1016C42.1784 15.1525 41.8352 13.9927 41.6851 12.9717C41.6711 12.8766 41.7113 12.7817 41.7886 12.7246Z" fill="#2CD785" stroke="#242020" stroke-width="0.520613" stroke-linejoin="round"/>
<path d="M27.3884 2.99805C27.3884 3.11327 27.3123 3.21524 27.2019 3.24805C26.7906 3.36962 26.3964 3.37675 26.0212 3.35254C25.8349 3.34051 25.6477 3.32009 25.4675 3.30176C25.2853 3.28322 25.1071 3.2665 24.9275 3.25879C24.7884 3.25261 24.6785 3.13734 24.6785 2.99805V2.6543C24.3394 2.70743 24.0895 2.77123 23.8962 2.88672C23.6733 3.02016 23.4988 3.24166 23.3904 3.70215C23.36 3.83082 23.2375 3.91581 23.1062 3.90039C22.0905 3.78113 21.1138 4.05017 20.4832 4.7793C20.7414 4.83091 21.011 4.84862 21.3005 4.86426C21.7079 4.88626 22.1602 4.90973 22.5906 5.08398C22.7466 5.14717 22.9029 5.24103 23.0466 5.33105C23.1971 5.42528 23.3354 5.51666 23.4783 5.5957C23.7692 5.75659 23.9919 5.8157 24.1882 5.74316C24.3845 5.67057 24.4529 5.56844 24.4841 5.4541C24.5225 5.3133 24.5096 5.12929 24.4744 4.8916C24.4425 4.67658 24.3892 4.40259 24.3943 4.16309C24.3997 3.90957 24.4706 3.62985 24.7361 3.43945C24.9058 3.31782 25.1031 3.28963 25.281 3.29785C25.4583 3.30607 25.6418 3.35107 25.8083 3.40137C25.9713 3.4506 26.148 3.51498 26.2859 3.56055C26.4362 3.61022 26.5497 3.64102 26.6316 3.64844C26.7348 3.65771 26.8439 3.63512 27.0056 3.60254C27.15 3.57346 27.346 3.53472 27.5466 3.57227C27.8136 3.62228 28.0093 3.79802 28.1501 3.93066C28.3108 4.08194 28.411 4.18584 28.531 4.24219C28.8185 4.37692 29.1444 4.44485 29.5154 4.54004C29.8708 4.63121 30.2605 4.74636 30.5925 4.9873C30.8076 5.1433 30.9332 5.35715 31.03 5.52344C31.135 5.70359 31.2087 5.8325 31.322 5.92773C31.4424 6.02892 31.5665 6.08586 31.7341 6.17676C31.8936 6.26325 32.0771 6.37473 32.2283 6.57617C32.29 6.65845 32.2979 6.76956 32.2478 6.85938C32.1977 6.94907 32.0992 7.00045 31.9968 6.99121L30.5808 6.8623C30.4808 6.85321 30.3949 6.78761 30.3601 6.69336C30.3105 6.55851 30.1879 6.44042 29.9822 6.35449C29.7767 6.26866 29.5111 6.22675 29.2312 6.2334C28.9525 6.24007 28.6754 6.29458 28.449 6.3877C28.3982 6.40857 28.3513 6.43083 28.3083 6.4541C28.6138 6.52337 28.9618 6.61095 29.2908 6.72949C29.5527 6.8239 29.8125 6.93947 30.0349 7.08398C30.2562 7.22774 30.4554 7.40989 30.5769 7.6416C30.6391 7.76052 30.6006 7.90726 30.488 7.98047C30.2237 8.15246 29.895 8.39161 29.4978 8.47363C29.3757 8.49884 29.259 8.50518 29.156 8.50781C29.0436 8.51068 28.9674 8.50952 28.8777 8.51465C28.7188 8.52376 28.6052 8.55268 28.4968 8.64746C28.4046 8.72825 28.3281 8.83605 28.238 8.97461C28.1542 9.10363 28.053 9.26849 27.9255 9.4082C27.7533 9.59706 27.5474 9.7825 27.3855 9.94336C27.2145 10.1133 27.0674 10.2779 26.9587 10.4668C26.8287 10.6929 26.7618 10.9446 26.6628 11.2461C26.5687 11.5331 26.4476 11.8542 26.2019 12.125C26.0735 12.2666 25.9126 12.3711 25.7576 12.4561C25.6061 12.539 25.4323 12.6177 25.2917 12.6865C24.98 12.8392 24.7892 12.9687 24.7166 13.1533C24.68 13.2464 24.6899 13.3614 24.7693 13.5312C24.8512 13.7063 24.9787 13.8837 25.1208 14.0967C25.2525 14.2939 25.4007 14.5286 25.4607 14.7734C25.5264 15.0419 25.486 15.3229 25.2566 15.5762C25.1618 15.6808 25.0443 15.7431 24.9148 15.7588C24.7914 15.7737 24.6775 15.7447 24.5857 15.7051C24.4069 15.6279 24.2561 15.4868 24.1638 15.3799C24.0533 15.2517 23.9691 15.1122 23.8982 14.9854C23.823 14.8507 23.7684 14.7424 23.7009 14.6357C23.5773 14.4404 23.4503 14.3171 23.2195 14.2764C22.9689 14.2321 22.6864 14.2836 22.364 14.376C22.1396 14.4403 21.8777 14.5314 21.6267 14.5977L21.3816 14.6533C21.1396 14.698 20.8878 14.7254 20.6433 14.751C20.3957 14.7768 20.1553 14.8008 19.9197 14.8379C19.4482 14.9121 19.0305 15.0356 18.6921 15.3018C18.3273 15.5889 18.1803 16.1862 18.241 16.8857C18.3007 17.5744 18.5543 18.249 18.8474 18.5986C19.0121 18.7949 19.1868 18.8886 19.3611 18.9219C19.5402 18.9561 19.7402 18.9306 19.9529 18.8535C20.3837 18.6973 20.8145 18.3477 21.114 18.0156C21.1605 17.964 21.2127 17.8918 21.2908 17.791C21.3626 17.6983 21.4505 17.5895 21.5496 17.4951C21.6468 17.4025 21.7734 17.3062 21.9265 17.2617C22.0927 17.2135 22.2702 17.2323 22.4382 17.3379C22.6786 17.4891 22.7903 17.7015 22.8074 17.9355C22.8227 18.1464 22.76 18.3615 22.7 18.5381C22.633 18.735 22.5702 18.8838 22.53 19.04C22.491 19.1921 22.4959 19.279 22.5193 19.332C22.54 19.3789 22.5879 19.4307 22.698 19.4844C22.8097 19.5387 22.9555 19.5806 23.1296 19.623C23.2933 19.6629 23.49 19.7052 23.6628 19.7588C23.8358 19.8125 24.0244 19.8886 24.1697 20.0176C24.5247 20.3327 24.58 20.7801 24.6189 21.124C24.662 21.5054 24.6888 21.7776 24.8513 21.9795C24.9512 22.1036 25.1088 22.192 25.3308 22.2461C25.5533 22.3003 25.8202 22.3152 26.1111 22.3066C26.4012 22.2981 26.701 22.2671 26.988 22.2373C27.187 22.2167 27.3849 22.1988 27.5632 22.1885C27.7072 21.6543 27.9669 21.2866 28.324 21.0576C28.7144 20.8073 29.1823 20.7482 29.6423 20.7607C30.1017 20.7732 30.5935 20.8591 31.0408 20.9287C31.5009 21.0004 31.9124 21.0544 32.2556 21.0254C32.4127 21.0121 32.5801 20.9811 32.7615 20.9424C32.9376 20.9048 33.1345 20.8589 33.3259 20.8242C33.7102 20.7546 34.1417 20.7156 34.5554 20.875C34.9972 21.0453 35.3374 21.377 35.6335 21.6699C35.9444 21.9774 36.209 22.2445 36.53 22.3955C36.8101 22.5271 37.1219 22.5346 37.5105 22.5625C37.877 22.5888 38.3064 22.6354 38.6785 22.9209C39.0923 23.2385 39.3777 23.6763 39.6404 24.0518C39.9127 24.441 40.1677 24.7764 40.5339 24.9951C40.9451 25.2407 41.3797 25.3695 41.8435 25.4727C42.1817 25.5479 42.5539 25.6129 42.9255 25.7021L43.2957 25.8008L43.5583 25.8828C44.1558 26.0796 44.7362 26.3398 45.2703 26.7119L45.4197 26.7705L45.4255 26.7734L45.614 26.8525L45.6628 26.8799L45.8308 26.998C45.8999 27.0468 45.9412 27.1264 45.9412 27.2109C45.9412 27.4324 45.9475 27.5986 45.9314 27.7559C45.914 27.925 45.8717 28.0847 45.7878 28.3203C45.6809 28.6205 45.5157 28.89 45.3767 29.1289C45.2326 29.3767 45.1117 29.6001 45.0486 29.8438C44.9847 30.0901 44.8931 30.3402 44.8142 30.5693C44.733 30.8051 44.6627 31.0247 44.6267 31.2373C44.5962 31.4175 44.605 31.7197 44.6365 32.1133C44.6678 32.5051 44.7159 32.9352 44.7566 33.3906C44.7964 33.8356 44.8271 34.2887 44.8152 34.6826C44.8037 35.0632 44.7524 35.442 44.5896 35.6992C43.7139 37.0827 42.3692 37.6221 40.9451 37.8516C40.2349 37.966 39.496 38.0046 38.7771 38.0312C38.0525 38.0581 37.3527 38.0724 36.698 38.1348C35.9086 38.2099 35.1013 38.1576 34.324 38.1143C33.538 38.0704 32.7799 38.0357 32.0515 38.1338C31.9771 38.1438 31.902 38.1207 31.8455 38.0713C31.7891 38.022 31.7567 37.9509 31.7566 37.876C31.7566 37.5162 31.757 36.8886 31.7097 36.2754C31.6861 35.9688 31.6509 35.671 31.5994 35.415C31.5467 35.1532 31.4808 34.9586 31.4089 34.8428C31.2488 34.5851 30.9194 34.4221 30.4734 34.2656C30.2752 34.1961 30.0144 34.1147 29.8093 34.04C29.5914 33.9607 29.37 33.8669 29.1833 33.7402C28.727 33.4305 28.4251 32.961 28.1785 32.5039C27.9202 32.0252 27.7322 31.5841 27.4773 31.2129C27.3807 31.0724 27.2672 30.9295 27.1453 30.7773C27.0252 30.6275 26.8952 30.4679 26.7732 30.3047C26.5301 29.9797 26.2967 29.6107 26.198 29.1943C26.1516 28.9984 26.1635 28.8129 26.1785 28.6592C26.1945 28.4941 26.2116 28.3741 26.2039 28.249C26.19 28.0268 26.1272 27.8453 26.0681 27.5898C26.012 27.3471 25.9708 27.0682 26.0583 26.748C26.1333 26.4742 26.2773 26.1852 26.4187 25.9121C26.5649 25.6298 26.7113 25.358 26.8191 25.0869C26.9267 24.8161 26.9846 24.572 26.9685 24.3535C26.9532 24.1456 26.8698 23.9424 26.657 23.7441C26.5641 23.6576 26.4575 23.6033 26.325 23.543C26.2407 23.6576 26.1463 23.7535 26.0359 23.8242C25.861 23.9362 25.6686 23.9806 25.4753 23.9756C25.1021 23.9659 24.72 23.7732 24.3826 23.54C23.6996 23.0681 23.0491 22.3199 22.7546 21.9609C22.6341 21.8139 22.5481 21.6908 22.4314 21.5615C22.3217 21.4401 22.2192 21.3548 22.113 21.3105C22.0046 21.2653 21.8945 21.2786 21.7117 21.3271C21.5513 21.3697 21.298 21.4547 21.0339 21.4111C20.7445 21.3632 20.5194 21.1962 20.3523 21.0781C20.1686 20.9484 20.0385 20.864 19.8845 20.8438C19.7737 20.8293 19.6562 20.8412 19.5037 20.8584C19.3615 20.8744 19.1828 20.8962 19.0007 20.877C18.8005 20.8557 18.6208 20.7859 18.4773 20.7314C18.3237 20.6732 18.2059 20.6308 18.0837 20.6182C17.8995 20.5991 17.7196 20.593 17.5349 20.5879C17.3531 20.5829 17.1633 20.5781 16.9753 20.5605C16.5922 20.5247 16.1995 20.4331 15.7996 20.1621C15.3722 19.8725 15.2661 19.4674 15.2117 19.1133C15.154 18.7382 15.1473 18.4633 14.9998 18.2129C14.9085 18.058 14.7608 17.9787 14.5291 17.8809C14.3175 17.7916 14.01 17.6803 13.7869 17.4248C13.4038 16.9861 13.1707 16.4812 12.9392 16.0518C12.8518 15.8896 12.7626 15.7348 12.6648 15.5889C12.7579 15.8669 12.8718 16.1338 12.9978 16.3994C13.1265 16.6707 13.2668 16.9379 13.4119 17.2158C13.5562 17.4924 13.7051 17.7791 13.8455 18.0811C13.8883 18.1733 13.8733 18.2819 13.8074 18.3594C13.7415 18.4368 13.6367 18.4689 13.5388 18.4414C12.8816 18.2564 12.4667 17.8022 12.1794 17.2881C11.8972 16.7828 11.7213 16.1875 11.5593 15.6973C11.4737 15.4379 11.4006 15.1562 11.3269 14.9072C11.2506 14.6496 11.1694 14.4075 11.0593 14.1865C10.9697 14.0068 10.8572 13.853 10.7292 13.6465C10.6092 13.4526 10.4862 13.2271 10.4333 12.9629C10.3358 12.475 10.3745 11.8679 10.4773 11.293C10.5808 10.7144 10.7545 10.1416 10.948 9.71484C11.1136 9.34956 11.3653 8.98554 11.5798 8.65332C11.8024 8.30867 11.9901 7.99157 12.0789 7.67969C12.1186 7.5398 12.1191 7.38514 12.1052 7.19922C12.0925 7.02822 12.0632 6.80372 12.0681 6.59766C12.0723 6.42461 12.0928 6.28714 12.1101 6.17773C12.1286 6.0613 12.1385 6.00092 12.1384 5.94531C12.1383 5.90308 12.1318 5.86862 12.1072 5.82324C12.0786 5.77065 12.0224 5.69629 11.908 5.58691C11.8268 5.5093 11.8041 5.3885 11.8523 5.28711C12.1898 4.58031 12.8338 4.12084 13.4949 3.76562C13.8274 3.58695 14.1763 3.42903 14.5037 3.2793C14.8345 3.128 15.1424 2.98529 15.4119 2.83301C16.166 2.40668 16.8824 1.90875 17.7732 1.60352C19.3822 1.05229 20.9584 0.810671 22.5916 0.573242C22.8817 0.531069 23.1927 0.497516 23.4968 0.463867C23.8031 0.429982 24.1037 0.395625 24.3835 0.351562C25.241 0.21653 26.1816 0.260573 27.0105 0.296875C27.7037 0.327229 28.5605 0.347485 29.3328 0.405273C29.7201 0.434268 30.0932 0.473532 30.4207 0.529297C30.7443 0.584427 31.041 0.658099 31.2664 0.764648C31.3647 0.811278 31.4233 0.914986 31.4138 1.02344C31.3697 1.52531 31.1775 2.13668 31.0398 2.6123C31.1385 2.67146 31.226 2.73506 31.3044 2.81348C31.4301 2.93924 31.5199 3.08649 31.6101 3.26953C31.6538 3.3582 31.6437 3.4644 31.5837 3.54297C31.5237 3.62149 31.4239 3.65941 31.3269 3.64062C30.2409 3.42919 29.531 2.87051 28.6746 2.39258C27.9783 2.00408 27.0625 1.66351 26.282 1.43457C25.6315 1.24374 24.9418 1.19736 24.406 1.44922C25.394 1.69201 26.3438 2.10126 27.2351 2.50391C27.3282 2.54606 27.3884 2.63898 27.3884 2.74121V2.99805Z" fill="#2CD785" stroke="#242020" stroke-width="0.520613" stroke-linejoin="round"/>
<path d="M24.285 16.8491C24.7856 16.6797 25.4206 16.5995 26.0253 16.6675C26.627 16.7352 27.2363 16.9545 27.6376 17.4214C27.6979 17.4916 27.7167 17.5888 27.6864 17.6763C27.656 17.7638 27.581 17.8284 27.4901 17.8462C27.1857 17.9057 26.9115 17.8516 26.6718 17.7837C26.4143 17.7107 26.2319 17.6368 26.0067 17.5962C25.7478 17.5495 25.4982 17.5652 25.1805 17.5542C24.8822 17.5438 24.5482 17.5069 24.2343 17.3188C24.1472 17.2667 24.0985 17.1687 24.1093 17.0679C24.1201 16.967 24.1889 16.8817 24.285 16.8491Z" fill="#2CD785" stroke="#242020" stroke-width="0.520613" stroke-linejoin="round"/>
<path d="M28.194 17.8506C28.662 17.8506 29.2726 17.7975 29.8024 18.0791C29.8931 18.1274 29.9472 18.2246 29.9401 18.3271C29.9329 18.4296 29.8657 18.5185 29.7692 18.5537C29.5084 18.6487 29.176 18.7602 28.858 18.7588C28.6941 18.758 28.5234 18.7281 28.3639 18.6426C28.2023 18.5559 28.068 18.4205 27.9664 18.2363C27.922 18.1558 27.9227 18.0577 27.9694 17.9785C28.0162 17.8992 28.1019 17.8506 28.194 17.8506Z" fill="#2CD785" stroke="#242020" stroke-width="0.520613" stroke-linejoin="round"/>
</g>
<g filter="url(#filter4_d_1390_2)">
<path d="M39.9232 32.6945C21.9668 33.1534 15.4677 46.326 14.0813 52.3258C25.8992 49.9163 34.1624 43.1403 37.1982 40.5826C32.3074 46.4629 20.8481 51.4826 14.9679 52.9886C43.3079 57.2338 51.9227 34.6785 52.6877 22.8701C48.844 29.7543 42.5765 32.6945 39.9232 32.6945Z" fill="#3CF89E"/>
<path d="M52.4602 22.7432C52.5194 22.6371 52.6444 22.5859 52.761 22.6201C52.8776 22.6545 52.9553 22.7654 52.9475 22.8867C52.5624 28.8319 50.2029 37.4828 44.3635 44.1211C38.5107 50.7746 29.1825 55.3812 14.929 53.2461C14.8067 53.2276 14.7146 53.1255 14.7083 53.002C14.7019 52.8783 14.7836 52.7671 14.9036 52.7363C17.0158 52.1954 19.8599 51.1937 22.8616 49.8594C20.2288 50.9691 17.3093 51.9335 14.1331 52.5811C14.0464 52.5986 13.9565 52.5711 13.8948 52.5078C13.8331 52.4445 13.8076 52.3537 13.8274 52.2676C15.2291 46.2014 21.7975 32.8978 39.9163 32.4346L39.9231 32.4336V32.4346C41.1774 32.4346 43.3568 31.7285 45.7141 30.1475C48.062 28.5727 50.5601 26.1463 52.4602 22.7432Z" stroke="#242020" stroke-width="0.520613" stroke-linejoin="round"/>
</g>
<defs>
<filter id="filter0_d_1390_2" x="0" y="23.2168" width="13.5382" height="27.2403" filterUnits="userSpaceOnUse" color-interpolation-filters="sRGB">
<feFlood flood-opacity="0" result="BackgroundImageFix"/>
<feColorMatrix in="SourceAlpha" type="matrix" values="0 0 0 0 0 0 0 0 0 0 0 0 0 0 0 0 0 0 127 0" result="hardAlpha"/>
<feOffset dx="0.520613" dy="0.520613"/>
<feComposite in2="hardAlpha" operator="out"/>
<feColorMatrix type="matrix" values="0 0 0 0 0.141176 0 0 0 0 0.12549 0 0 0 0 0.12549 0 0 0 1 0"/>
<feBlend mode="normal" in2="BackgroundImageFix" result="effect1_dropShadow_1390_2"/>
<feBlend mode="normal" in="SourceGraphic" in2="effect1_dropShadow_1390_2" result="shape"/>
</filter>
<filter id="filter1_d_1390_2" x="1.34045" y="0.126465" width="51.4366" height="51.3321" filterUnits="userSpaceOnUse" color-interpolation-filters="sRGB">
<feFlood flood-opacity="0" result="BackgroundImageFix"/>
<feColorMatrix in="SourceAlpha" type="matrix" values="0 0 0 0 0 0 0 0 0 0 0 0 0 0 0 0 0 0 127 0" result="hardAlpha"/>
<feOffset dx="0.624736" dy="0.520613"/>
<feComposite in2="hardAlpha" operator="out"/>
<feColorMatrix type="matrix" values="0 0 0 0 0.141176 0 0 0 0 0.12549 0 0 0 0 0.12549 0 0 0 1 0"/>
<feBlend mode="normal" in2="BackgroundImageFix" result="effect1_dropShadow_1390_2"/>
<feBlend mode="normal" in="SourceGraphic" in2="effect1_dropShadow_1390_2" result="shape"/>
</filter>
<filter id="filter2_f_1390_2" x="-41.0118" y="-65.3016" width="154.079" height="131.163" filterUnits="userSpaceOnUse" color-interpolation-filters="sRGB">
<feFlood flood-opacity="0" result="BackgroundImageFix"/>
<feBlend mode="normal" in="SourceGraphic" in2="BackgroundImageFix" result="shape"/>
<feGaussianBlur stdDeviation="1.19741" result="effect1_foregroundBlur_1390_2"/>
</filter>
<filter id="filter3_d_1390_2" x="10.1168" y="0" width="37.718" height="38.745" filterUnits="userSpaceOnUse" color-interpolation-filters="sRGB">
<feFlood flood-opacity="0" result="BackgroundImageFix"/>
<feColorMatrix in="SourceAlpha" type="matrix" values="0 0 0 0 0 0 0 0 0 0 0 0 0 0 0 0 0 0 127 0" result="hardAlpha"/>
<feOffset dx="0.416491" dy="0.312368"/>
<feColorMatrix type="matrix" values="0 0 0 0 0.141176 0 0 0 0 0.12549 0 0 0 0 0.12549 0 0 0 1 0"/>
<feBlend mode="normal" in2="BackgroundImageFix" result="effect1_dropShadow_1390_2"/>
<feBlend mode="normal" in="SourceGraphic" in2="effect1_dropShadow_1390_2" result="shape"/>
</filter>
<filter id="filter4_d_1390_2" x="13.5607" y="22.3496" width="40.1682" height="32.2047" filterUnits="userSpaceOnUse" color-interpolation-filters="sRGB">
<feFlood flood-opacity="0" result="BackgroundImageFix"/>
<feColorMatrix in="SourceAlpha" type="matrix" values="0 0 0 0 0 0 0 0 0 0 0 0 0 0 0 0 0 0 127 0" result="hardAlpha"/>
<feOffset dx="0.520613" dy="0.520613"/>
<feComposite in2="hardAlpha" operator="out"/>
<feColorMatrix type="matrix" values="0 0 0 0 0.141176 0 0 0 0 0.12549 0 0 0 0 0.12549 0 0 0 1 0"/>
<feBlend mode="normal" in2="BackgroundImageFix" result="effect1_dropShadow_1390_2"/>
<feBlend mode="normal" in="SourceGraphic" in2="effect1_dropShadow_1390_2" result="shape"/>
</filter>
<linearGradient id="paint0_linear_1390_2" x1="29.3313" y1="-25.2812" x2="21.7148" y2="136.118" gradientUnits="userSpaceOnUse">
<stop stop-color="#11467B"/>
<stop offset="1" stop-color="#1E5995"/>
</linearGradient>
<clipPath id="clip0_1390_2">
<rect width="149.29" height="126.373" fill="white" transform="translate(-38.6169 -62.9067)"/>
</clipPath>
</defs>
</svg>
